<?xml version="1.0" standalone="no"?>
<!DOCTYPE svg PUBLIC "-//W3C//DTD SVG 20010904//EN"
 "http://www.w3.org/TR/2001/REC-SVG-20010904/DTD/svg10.dtd">
<svg version="1.0" xmlns="http://www.w3.org/2000/svg"
 width="68.000000pt" height="68.000000pt" viewBox="0 0 68.000000 68.000000"
 preserveAspectRatio="xMidYMid meet">

<g transform="translate(0.000000,68.000000) scale(0.100000,-0.100000)"
fill="#000000" stroke="none">
<path d="M224 635 c-11 -17 -25 -25 -44 -25 -16 0 -30 -7 -34 -15 -3 -10 -19
-15 -44 -15 -71 0 -72 -5 -72 -276 0 -201 3 -243 16 -262 15 -21 20 -22 214
-22 194 0 199 1 214 22 9 12 16 32 16 43 0 12 16 31 39 47 58 41 97 107 111
186 18 100 17 102 -72 129 l-78 24 0 39 c0 50 -21 70 -71 70 -26 0 -42 5 -45
15 -4 8 -18 15 -34 15 -19 0 -33 8 -44 25 -9 14 -25 25 -36 25 -11 0 -27 -11
-36 -25z m62 -20 c10 -15 26 -25 41 -25 20 0 24 -4 21 -22 -3 -22 -7 -23 -88
-23 -81 0 -85 1 -88 23 -3 18 1 22 22 22 16 0 32 9 42 25 9 14 20 25 25 25 5
0 16 -11 25 -25z m-126 -75 c17 -17 33 -20 100 -20 67 0 83 3 100 20 13 13 33
20 60 20 34 0 41 -4 46 -24 12 -50 3 -60 -78 -86 l-78 -25 0 -51 c0 -103 58
-213 134 -253 28 -15 35 -48 14 -69 -17 -17 -379 -17 -396 0 -13 13 -18 461
-6 492 9 24 79 21 104 -4z m404 -111 l68 -22 -6 -55 c-12 -99 -53 -169 -127
-216 -25 -16 -27 -15 -73 25 -26 23 -56 60 -68 82 -26 52 -37 165 -17 170 8 2
41 13 74 24 33 12 65 20 70 18 6 -2 41 -14 79 -26z"/>
<path d="M95 460 c3 -5 30 -10 60 -10 30 0 57 5 60 10 4 6 -18 10 -60 10 -42
0 -64 -4 -60 -10z"/>
<path d="M90 420 c0 -5 18 -10 40 -10 22 0 40 5 40 10 0 6 -18 10 -40 10 -22
0 -40 -4 -40 -10z"/>
<path d="M90 320 c0 -6 28 -10 65 -10 37 0 65 4 65 10 0 6 -28 10 -65 10 -37
0 -65 -4 -65 -10z"/>
<path d="M90 270 c0 -5 18 -10 40 -10 22 0 40 5 40 10 0 6 -18 10 -40 10 -22
0 -40 -4 -40 -10z"/>
<path d="M90 170 c0 -6 28 -10 65 -10 37 0 65 4 65 10 0 6 -28 10 -65 10 -37
0 -65 -4 -65 -10z"/>
<path d="M90 120 c0 -5 18 -10 40 -10 22 0 40 5 40 10 0 6 -18 10 -40 10 -22
0 -40 -4 -40 -10z"/>
<path d="M395 398 c-64 -38 -61 -83 12 -159 31 -32 61 -59 68 -59 16 0 80 68
72 77 -4 3 -22 -8 -40 -25 l-33 -32 -32 33 c-22 22 -30 39 -26 50 9 24 19 21
32 -8 16 -34 29 -31 38 7 l7 33 15 -23 c15 -23 75 -32 87 -12 4 6 -8 10 -29
10 -31 0 -38 4 -51 36 -17 40 -30 38 -40 -8 l-7 -31 -19 24 -19 24 -19 -24
c-10 -13 -23 -21 -30 -17 -18 11 -13 54 9 76 22 22 42 25 71 10 13 -8 25 -7
40 1 29 15 66 -2 81 -38 l12 -28 4 25 c6 36 -41 74 -82 66 -39 -8 -45 -8 -76
-1 -14 3 -34 0 -45 -7z"/>
</g>
</svg>
