<?xml version="1.0" standalone="no"?>
<!DOCTYPE svg PUBLIC "-//W3C//DTD SVG 20010904//EN"
 "http://www.w3.org/TR/2001/REC-SVG-20010904/DTD/svg10.dtd">
<svg version="1.0" xmlns="http://www.w3.org/2000/svg"
 width="32.000000pt" height="32.000000pt" viewBox="0 0 32.000000 32.000000"
 preserveAspectRatio="xMidYMid meet">

<g transform="translate(0.000000,32.000000) scale(0.100000,-0.100000)"
fill="#000000" stroke="none">
<path d="M107 266 c-16 -9 -34 -15 -40 -13 -7 1 -13 -10 -15 -25 -3 -29 6 -33
42 -19 15 6 17 9 6 16 -9 6 -7 11 11 21 66 36 149 -12 149 -86 0 -49 -49 -100
-95 -100 -8 0 -15 -5 -15 -11 0 -21 64 0 95 31 25 26 30 38 30 80 0 42 -5 54
-31 81 -37 37 -95 48 -137 25z"/>
<path d="M142 208 c-18 -18 -15 -36 8 -50 11 -7 20 -17 20 -21 0 -5 -9 -5 -20
-2 -24 7 -26 -7 -5 -25 12 -10 18 -10 30 0 21 17 19 37 -5 52 -11 7 -20 17
-20 21 0 5 9 5 20 2 22 -7 26 5 8 23 -15 15 -21 15 -36 0z"/>
<path d="M40 160 c0 -5 5 -10 10 -10 6 0 10 5 10 10 0 6 -4 10 -10 10 -5 0
-10 -4 -10 -10z"/>
<path d="M50 120 c0 -5 5 -10 11 -10 5 0 7 5 4 10 -3 6 -8 10 -11 10 -2 0 -4
-4 -4 -10z"/>
<path d="M75 80 c3 -5 8 -10 11 -10 2 0 4 5 4 10 0 6 -5 10 -11 10 -5 0 -7 -4
-4 -10z"/>
<path d="M110 60 c0 -5 5 -10 11 -10 5 0 7 5 4 10 -3 6 -8 10 -11 10 -2 0 -4
-4 -4 -10z"/>
</g>
</svg>
